<svg xmlns="http://www.w3.org/2000/svg" width="1280" height="640" viewBox="0 0 1280 640"><rect width="1280" height="640" fill="#090b10"/><rect x="0" y="0" width="1280" height="86" fill="#0d1118"/><text x="42" y="43" fill="#eef2f8" font-family="monospace" font-size="28" font-weight="700">◉ AgentMemora</text><text x="42" y="68" fill="#8c96a8" font-family="monospace" font-size="14">DevTools for AI agent memory</text><text x="978" y="48" fill="#9ee493" font-family="monospace" font-size="14" font-weight="700">MEMORY OBSERVABILITY</text><rect x="42" y="116" rx="12" width="560" height="238" fill="#11151d" stroke="#252b38"/><text x="66" y="151" fill="#cbd4e3" font-family="monospace" font-size="14" font-weight="700">MEMORY CONFLICT</text><text x="66" y="201" fill="#8c96a8" font-family="monospace" font-size="12">project.database</text><text x="66" y="242" fill="#ffca6a" font-family="monospace" font-size="22" font-weight="700">PostgreSQL</text><text x="238" y="242" fill="#8c96a8" font-family="monospace" font-size="18">→</text><text x="282" y="242" fill="#9ee493" font-family="monospace" font-size="22" font-weight="700">MongoDB</text><text x="66" y="298" fill="#8c96a8" font-family="monospace" font-size="13">previous marked historical · active value preserved</text><rect x="630" y="116" rx="12" width="608" height="238" fill="#11151d" stroke="#252b38"/><text x="654" y="151" fill="#cbd4e3" font-family="monospace" font-size="14" font-weight="700">PROVIDER OPERATION EVENTS</text><text x="654" y="194" fill="#8c96a8" font-family="monospace" font-size="12">provider</text><text x="810" y="194" fill="#8c96a8" font-family="monospace" font-size="12">operation</text><text x="1010" y="194" fill="#8c96a8" font-family="monospace" font-size="12">latency</text><g font-family="monospace" font-size="14"><text x="654" y="230" fill="#eef2f8">agentmemora</text><text x="810" y="230" fill="#9ee493">conflict</text><text x="1010" y="230" fill="#eef2f8">0.18 ms</text><text x="654" y="266" fill="#eef2f8">mem0</text><text x="810" y="266" fill="#9ee493">recall</text><text x="1010" y="266" fill="#eef2f8">12.40 ms</text><text x="654" y="302" fill="#eef2f8">langgraph</text><text x="810" y="302" fill="#9ee493">write</text><text x="1010" y="302" fill="#eef2f8">0.77 ms</text></g><rect x="42" y="382" rx="12" width="1196" height="194" fill="#11151d" stroke="#252b38"/><text x="66" y="417" fill="#cbd4e3" font-family="monospace" font-size="14" font-weight="700">RECALL TRACE + TIMELINE</text><line x1="105" y1="495" x2="1125" y2="495" stroke="#252b38" stroke-width="4"/><circle cx="105" cy="495" r="10" fill="#ffca6a"/><circle cx="1125" cy="495" r="10" fill="#9ee493"/><text x="72" y="532" fill="#ffca6a" font-family="monospace" font-size="14">PostgreSQL</text><text x="1088" y="532" fill="#9ee493" font-family="monospace" font-size="14">MongoDB</text><text x="463" y="475" fill="#8c96a8" font-family="monospace" font-size="13">WHY: lexical_overlap=2; confidence=0.95</text><text x="42" y="616" fill="#8c96a8" font-family="monospace" font-size="13">Observe writes · recalls · conflicts · provenance · latency — without replacing your memory backend.</text></svg>